# xmcd
#
# Track frame offsets:
#	150
#	30130
#	44940
#	56307
#	75107
#	92607
#	105860
#	119727
#	132175
#	145987
#	164952
#	180320
#	196307
#	212505
#	231425
#	246330
#
# Disc length: 3552
#
# Revision: 2
# Processed by: cddbd v1.5.1PL0 Copyright (c) Steve Scherf et al.
# Submitted via: CDmax 2.0
# Normalized: r1:DSETVAR1,TDELIM( - )
#
DISCID=d60dde10
DTITLE=Various Artist - Great Country Songs
DYEAR=1900
DGENRE=Country
TTITLE0=Dan Fogelberg - Sutter's Mill
TTITLE1=James Taylor - Handy Man
TTITLE2=Linda Ronstadt - It's so easy
TTITLE3=Quatro and Norman - Stumblin'  In
TTITLE4=Linda Ronstadt - Blue bayou
TTITLE5=Glen Campbell - Rhinestone Cowboy
TTITLE6=Ronnie Milsap - No gettin' over me
TTITLE7=Johnny Cash - I walk the line
TTITLE8=Lynn Anderson - Rose garden
TTITLE9=Eric Clapton - Tears in heaven
TTITLE10=Billy Ray Cyrus - Achy Breaky Heart
TTITLE11=Eagles - Take it easy
TTITLE12=Gordon Lightfoot - Sundown
TTITLE13=Parton and Rogers - Island in the stream
TTITLE14=Dan Fogelberg - Longer
TTITLE15=Eric Clapton - Layla
EXTD=
EXTT0=
EXTT1=
EXTT2=
EXTT3=
EXTT4=
EXTT5=
EXTT6=
EXTT7=
EXTT8=
EXTT9=
EXTT10=
EXTT11=
EXTT12=
EXTT13=
EXTT14=
EXTT15=
PLAYORDER=
